<svg xmlns="http://www.w3.org/2000/svg" xmlns:xlink="http://www.w3.org/1999/xlink" width="16.0009765625" height="16" viewBox="0 0 16.0009765625 16" fill="none">
<path   fill-rule="evenodd"  fill="#FF6418"  d="M7.03574 -0.000224948L10.0558 -0.000224948L16.0013 5.94528L16.0013 13.9899L15.287 13.9899L11.9816 13.9899L11.9816 15.2846L11.9816 15.9998L0.000165224 15.9998L0.000530589 15.2851L0.00138757 2.72396L0.715707 2.72394L0.715724 2.00962L6.03609 2.00962L11.9816 7.95512L11.9816 12.5613L14.5726 12.5613L14.5726 6.53704L9.46401 1.42841L7.03574 1.42841L7.03574 -0.000224948ZM0.715707 2.72394L0.715724 2.00962L0.00143702 2.00962L0.00138757 2.72396L0.715707 2.72394ZM1.42998 3.43826L1.4295 14.5711L10.553 14.5711L10.553 8.96532L5.74103 8.96532L5.74021 8.251L5.02589 8.25099L5.02589 3.43826L1.42998 3.43826ZM6.45453 4.44846L9.54276 7.53669L6.45453 7.53669L6.45453 4.44846ZM5.74021 8.251L5.02589 8.25099L5.02589 8.96532L5.74103 8.96532L5.74021 8.251Z">
</path>
</svg>
