<svg xmlns="http://www.w3.org/2000/svg" xmlns:xlink="http://www.w3.org/1999/xlink" width="16.052734375" height="16" viewBox="0 0 16.052734375 16" fill="none">
<path d="M0.716145 9.99989C1.11192 9.99989 1.43276 10.3223 1.43276 10.7201L1.43276 12.24C1.43276 13.521 2.46609 14.5595 3.74077 14.5595L12.3106 14.5595C13.5853 14.5595 14.6186 13.521 14.6186 12.24L14.6186 10.7201C14.6186 10.3223 14.9394 9.99989 15.3352 9.99989C15.731 9.99989 16.0518 10.3223 16.0518 10.7201L16.0518 12.24C16.0518 14.3166 14.3768 15.9999 12.3106 15.9999L3.74077 15.9999C1.67455 15.9999 -0.000475407 14.3166 -0.000475407 12.24L-0.000475407 10.7201C-0.000475407 10.3223 0.320366 9.99989 0.716145 9.99989Z" fill-rule="evenodd"  fill="#F76117" >
</path>
<path d="M8.02567 -0.000108004C8.57976 -0.000108004 9.02894 0.320406 9.02894 0.715781L9.02894 10.284C9.02894 10.6794 8.57976 10.9999 8.02567 10.9999C7.47158 10.9999 7.0224 10.6794 7.0224 10.284L7.0224 0.715781C7.0224 0.320406 7.47158 -0.000108004 8.02567 -0.000108004Z" fill-rule="evenodd"  fill="#F76117" >
</path>
<path d="M4.24273 6.19285C4.53419 5.92148 4.98986 5.9384 5.2605 6.23065L8.02567 9.21656L10.7908 6.23065C11.0615 5.9384 11.5171 5.92148 11.8086 6.19285C12.1001 6.46422 12.1169 6.92112 11.8463 7.21337L8.5534 10.7691C8.41714 10.9163 8.22592 10.9999 8.02567 10.9999C7.82541 10.9999 7.6342 10.9163 7.49793 10.7691L4.20503 7.21337C3.93439 6.92112 3.95127 6.46422 4.24273 6.19285Z" fill-rule="evenodd"  fill="#F76117" >
</path>
</svg>
