<svg xmlns="http://www.w3.org/2000/svg" xmlns:xlink="http://www.w3.org/1999/xlink" width="12" height="12" viewBox="0 0 12 12" fill="none">
<path d="M6 5.29587e-06C6.4926 -0.000824033 6.98051 0.0957586 7.43564 0.284196C7.89077 0.472634 8.30416 0.749208 8.652 1.098C9.00076 1.44587 9.27732 1.85926 9.46575 2.31439C9.65419 2.76952 9.75079 3.25741 9.75 3.75C9.75083 4.2426 9.65425 4.73051 9.46581 5.18564C9.27737 5.64077 9.0008 6.05416 8.652 6.402C8.08658 6.96871 7.35413 7.33888 6.5625 7.458L6.5625 8.4375L8.4375 8.4375C8.51143 8.4373 8.58466 8.45172 8.65299 8.47991C8.72133 8.50811 8.78342 8.54954 8.83569 8.60181C8.88796 8.65408 8.92939 8.71617 8.95759 8.78451C8.98578 8.85284 9.0002 8.92608 9 9C9.0002 9.07392 8.98578 9.14716 8.95759 9.21549C8.92939 9.28383 8.88796 9.34592 8.83569 9.39819C8.78342 9.45046 8.72133 9.49189 8.65299 9.52008C8.58466 9.54828 8.51143 9.5627 8.4375 9.5625L6.5625 9.5625L6.5625 11.4367C6.5627 11.5107 6.54829 11.5839 6.52009 11.6522C6.49189 11.7206 6.45046 11.7827 6.39819 11.8349C6.34592 11.8872 6.28383 11.9286 6.2155 11.9568C6.14716 11.985 6.07393 11.9994 6 11.9992C5.92608 11.9994 5.85284 11.985 5.78451 11.9568C5.71617 11.9286 5.65409 11.8872 5.60181 11.8349C5.54954 11.7827 5.50812 11.7206 5.47992 11.6522C5.45172 11.5839 5.43731 11.5107 5.4375 11.4367L5.4375 9.5625L3.5625 9.5625C3.48858 9.5627 3.41535 9.54828 3.34701 9.52008C3.27868 9.49189 3.21659 9.45046 3.16432 9.39819C3.11204 9.34592 3.07062 9.28383 3.04242 9.21549C3.01422 9.14716 2.99981 9.07392 3 9C2.99981 8.92608 3.01422 8.85284 3.04242 8.78451C3.07062 8.71617 3.11204 8.65408 3.16432 8.60181C3.21659 8.54954 3.27868 8.50811 3.34701 8.47991C3.41535 8.45172 3.48858 8.4373 3.5625 8.4375L5.4375 8.4375L5.4375 7.458C4.64577 7.33872 3.91329 6.96827 3.348 6.40125C2.9993 6.05349 2.72278 5.64023 2.53434 5.18524C2.34591 4.73024 2.24927 4.24248 2.25001 3.75C2.24918 3.2574 2.34576 2.7695 2.5342 2.31437C2.72263 1.85923 2.99921 1.44585 3.348 1.098C3.69585 0.749208 4.10923 0.472634 4.56437 0.284196C5.0195 0.0957586 5.5074 -0.000824033 6 5.29587e-06ZM6 1.125C4.5525 1.125 3.375 2.3025 3.375 3.75C3.375 5.1975 4.5525 6.375 6 6.375C7.4475 6.375 8.625 5.1975 8.625 3.75C8.625 2.3025 7.4475 1.125 6 1.125Z"   fill="#FFFFFF" >
</path>
</svg>
