<svg xmlns="http://www.w3.org/2000/svg" xmlns:xlink="http://www.w3.org/1999/xlink" width="18" height="18" viewBox="0 0 18 18" fill="none">
<path d="M0 9C0 5.40486 0 3.60729 0.856692 2.31255C1.23925 1.73439 1.73439 1.23925 2.31255 0.856692C3.60729 0 5.40486 0 9 0C12.5951 0 14.3927 0 15.6874 0.856692C16.2656 1.23925 16.7608 1.73439 17.1433 2.31255C18 3.60729 18 5.40486 18 9C18 12.5951 18 14.3927 17.1433 15.6874C16.7608 16.2656 16.2656 16.7608 15.6874 17.1433C14.3927 18 12.5951 18 9 18C5.40486 18 3.60729 18 2.31255 17.1433C1.73439 16.7608 1.23925 16.2656 0.856692 15.6874C0 14.3927 0 12.5951 0 9ZM14.9384 4.1067C14.9384 4.7107 14.4474 5.2017 13.8434 5.2017C13.2384 5.2017 12.7484 4.7107 12.7484 4.1067C12.7484 3.5017 13.2384 3.0117 13.8434 3.0117C14.4474 3.0117 14.9384 3.5017 14.9384 4.1067ZM8.99981 13.6596C11.5731 13.6596 13.6592 11.5735 13.6592 9.00021C13.6592 6.42689 11.5731 4.3408 8.99981 4.3408C6.42649 4.3408 4.3404 6.42689 4.3404 9.00021C4.3404 11.5735 6.42649 13.6596 8.99981 13.6596ZM12.0828 9.00021C12.0828 10.7029 10.7025 12.0832 8.99981 12.0832C7.29711 12.0832 5.91681 10.7029 5.91681 9.00021C5.91681 7.29751 7.29711 5.91721 8.99981 5.91721C10.7025 5.91721 12.0828 7.29751 12.0828 9.00021Z" fill-rule="evenodd"  fill="#8D8BA7" >
</path>
</svg>
