<svg xmlns="http://www.w3.org/2000/svg" xmlns:xlink="http://www.w3.org/1999/xlink" width="18" height="17.14306640625" viewBox="0 0 18 17.14306640625" fill="none">
<path d="M-1.14441e-05 1.9912C-1.14441e-05 1.41399 0.202697 0.9378 0.608097 0.562631C1.0135 0.187445 1.54053 -0.000139236 2.18918 -0.000139236C2.82625 -0.000139236 3.34168 0.184553 3.73551 0.553973C4.14091 0.934925 4.34362 1.43131 4.34362 2.04315C4.34362 2.59726 4.14671 3.05901 3.75288 3.42843C3.34748 3.80938 2.81466 3.99986 2.15443 3.99986L2.13705 3.99986C1.49998 3.99986 0.98455 3.80938 0.590722 3.42843C0.196894 3.04748 -1.14441e-05 2.5684 -1.14441e-05 1.9912ZM0.225857 17.1427L0.225857 5.57562L4.083 5.57562L4.083 17.1427L0.225857 17.1427ZM6.22007 17.1427L10.0772 17.1427L10.0772 10.6838C10.0772 10.2798 10.1235 9.9681 10.2162 9.74877C10.3784 9.35627 10.6245 9.02438 10.9546 8.7531C11.2847 8.48181 11.6988 8.34618 12.1969 8.34618C13.4942 8.34618 14.1428 9.21774 14.1428 10.9609L14.1428 17.1427L18 17.1427L18 10.5107C18 8.80216 17.5946 7.50635 16.7838 6.62323C15.973 5.74012 14.9015 5.29856 13.5695 5.29856C12.0753 5.29856 10.9112 5.93925 10.0772 7.22064L10.0772 7.25527L10.0598 7.25527L10.0772 7.22064L10.0772 5.57562L6.22007 5.57562C6.24323 5.94502 6.25481 7.09364 6.25481 9.0215C6.25481 10.9493 6.24323 13.6564 6.22007 17.1427Z"   fill="#8D8BA7" >
</path>
</svg>
