<svg xmlns="http://www.w3.org/2000/svg" xmlns:xlink="http://www.w3.org/1999/xlink" width="167" height="126" viewBox="0 0 167 126" fill="none">
<g  clip-path="url(#clip-path-jAWpZJ3t8R2NGxsZ-oL76)">
<path d="M40.7502 9.60121C41.2971 9.37216 41.8629 9.04766 42.473 8.89495C45.2358 8.2046 47.5877 9.05084 49.5729 11.0042C51.1566 12.563 51.9248 14.5164 52.0322 16.7274C52.0512 17.1315 52.1713 17.2428 52.5633 17.2524C55.4304 17.3223 58.2407 17.7327 60.9087 18.8367C61.9044 19.2471 62.8591 19.7688 63.8011 20.2969C64.0887 20.456 64.2563 20.8218 64.506 21.0604C64.8411 21.3817 65.1635 21.7444 65.5587 21.9703C67.5344 23.1188 69.1971 24.6395 70.7492 26.2969C71.7829 27.4009 72.8134 28.5112 73.8756 29.5864C74.2043 29.9173 74.6153 30.1718 75.0167 30.4168C75.1495 30.4963 75.4245 30.509 75.5225 30.4231C75.6237 30.3372 75.6395 30.0764 75.6015 29.9141C75.4814 29.4274 75.5731 29.0265 75.905 28.807C76.2496 28.5811 76.5309 28.6448 76.749 28.9915C76.8755 29.192 77.0051 29.386 77.1315 29.5833C77.1726 29.5674 77.2169 29.5546 77.258 29.5387C77.2453 29.4051 77.2295 29.2715 77.2169 29.1411C77.1853 28.8134 77.0999 28.4793 77.1347 28.1612C77.1758 27.789 77.4603 27.5917 77.8396 27.5599C78.2284 27.5281 78.377 27.7731 78.4529 28.1008C78.4655 28.158 78.5003 28.2089 78.5509 28.3235C78.6331 28.1453 78.69 28.0117 78.7563 27.8876C78.9523 27.5154 79.4044 27.3245 79.7711 27.5027C79.8975 27.5663 80.0208 27.7731 80.0303 27.9194C80.0619 28.4062 80.0429 28.8961 80.0429 29.3797C80.3496 29.2906 80.6246 29.1474 80.9059 29.1379C81.4876 29.1188 81.731 29.5165 81.5192 30.0605C80.8775 31.7084 79.8975 33.07 78.2822 33.8876C77.0241 34.5239 75.6964 34.6671 74.3245 34.4189C74.1632 34.3903 73.9957 34.263 73.8724 34.139C71.0717 31.2789 67.7335 29.3288 63.8959 28.2598C62.6378 27.9099 61.3386 27.7126 60.052 27.474C59.4735 27.3659 58.9583 27.7763 58.8571 28.3553C58.7654 28.8993 59.1353 29.3765 59.7232 29.5101C61.2659 29.8569 62.8338 30.1177 64.3385 30.5886C67.8062 31.6734 70.7176 33.6649 73.1296 36.3945C73.2339 36.5122 73.275 36.7254 73.2718 36.8908C73.2402 38.6851 72.7344 40.3617 71.9726 41.9683C71.8841 42.156 71.7987 42.3468 71.6786 42.6077C72.3456 42.6841 72.9431 42.7572 73.5405 42.8209C74.1917 42.8908 74.8429 42.9958 75.4941 43.0086C76.1105 43.0213 76.7269 42.9099 77.3433 42.894C77.5994 42.8877 77.9218 42.894 78.1083 43.0404C80.28 44.701 81.9902 46.7498 83.0713 49.2854C83.2736 49.7594 83.2704 50.3257 83.3273 50.8538C83.3684 51.2292 83.1566 51.4678 82.8279 51.6523C81.7246 52.2758 79.8691 52.2726 79.0693 50.6947C78.4971 49.5653 77.5077 48.9609 76.2875 48.7509C76.0157 48.7032 75.7059 48.7254 75.4403 48.8082C72.9399 49.5876 70.4458 50.3829 67.9548 51.191C67.7999 51.2419 67.6418 51.385 67.5597 51.5314C65.7578 54.6078 63.9402 57.6746 62.1984 60.7859C61.8981 61.3236 61.9202 62.0553 61.8412 62.7043C61.5599 64.9694 61.2595 67.2345 61.0541 69.506C60.9909 70.2186 61.1268 70.979 61.307 71.6821C61.4555 72.2706 61.2248 72.5506 60.8138 72.8528C58.9551 74.2208 56.8814 75.0734 54.6117 75.3724C53.4705 75.5219 52.3041 75.4838 51.1471 75.541C50.8689 75.5538 50.7267 75.4265 50.6382 75.1815C50.183 73.9281 50.4169 72.1243 52.2978 71.5866C53.1355 71.3448 53.9447 70.9503 54.7192 70.5368C55.4905 70.1264 55.658 69.7383 55.3894 68.9079C54.7255 66.8559 54.0237 64.8167 53.284 62.7902C52.1239 59.612 51.0144 56.4211 50.1767 53.138C49.3895 50.0648 49.1777 46.9471 49.2852 43.7912C49.2947 43.4921 49.418 43.4189 49.6993 43.3935C54.3525 42.9736 58.2059 40.9916 61.2185 37.3839C61.8191 36.6649 61.5156 35.7265 60.6463 35.5897C60.1626 35.5133 59.8402 35.7933 59.562 36.1368C58.7085 37.1899 57.7223 38.0966 56.5969 38.8505C54.4916 40.2631 52.184 41.1157 49.6551 41.3224C48.0334 41.4561 46.6078 40.8134 45.2421 40.0563C42.2233 38.3797 40.1875 35.8314 38.942 32.6215C38.8188 32.3033 38.6417 32.1792 38.3288 32.1061C36.097 31.5907 33.9127 30.9449 31.918 29.7646C29.2058 28.1612 27.7106 25.7561 27.2996 22.6479C27.2048 21.9353 27.1321 21.2131 27.1416 20.4942C27.1479 19.9374 27.2396 19.368 27.3881 18.8303C27.7991 17.3255 28.2164 15.8208 28.7095 14.3382C29.5914 11.685 31.0456 9.32444 32.5692 7.00841C32.7462 6.738 32.8316 6.36896 32.86 6.0381C32.9707 4.78465 32.7368 3.56938 32.3606 2.37637C32.329 2.27457 32.3069 2.16958 32.2847 2.0646C32.1709 1.57149 32.3005 1.25653 32.6735 1.11656C33.1003 0.957488 33.5587 1.11019 33.7578 1.52695C33.9412 1.91189 34.0581 2.33183 34.2446 2.71677C34.3173 2.8663 34.5038 3.0699 34.6208 3.06036C34.7915 3.04445 35.0317 2.89175 35.0918 2.73586C35.3384 2.11232 35.528 1.46332 35.7335 0.823871C35.8979 0.308493 36.0812 0.165332 36.5428 0.23214C36.9632 0.289405 37.273 0.610721 37.2161 1.06247C37.137 1.69874 36.9632 2.3191 36.862 2.95219C36.8336 3.12399 36.881 3.45803 36.9411 3.47075C37.1402 3.50893 37.4247 3.50893 37.5606 3.38804C38.117 2.89175 38.6449 2.36046 39.1602 1.81963C39.5458 1.40924 39.8113 1.30744 40.1812 1.51422C40.5669 1.72737 40.7597 2.1664 40.5669 2.62133C40.4151 2.98083 40.1717 3.30532 39.9283 3.61391C39.6912 3.91296 39.3814 4.15156 39.1444 4.45061C39.04 4.58423 38.9673 4.82283 39.0147 4.97235C39.0495 5.0837 39.2992 5.19504 39.4541 5.19186C40.1844 5.17914 40.9177 5.15369 41.6416 5.08052C42.0083 5.04234 42.315 5.05507 42.5078 5.40183C42.7038 5.75496 42.6974 6.14309 42.4382 6.43577C42.2264 6.67437 41.9293 6.8907 41.629 6.98296C41.1833 7.11658 40.6933 7.10385 40.2381 7.20884C39.9979 7.2661 39.7165 7.39336 39.5837 7.58106C39.4004 7.84193 39.5521 8.09962 39.7766 8.34458C40.1338 8.72952 40.4246 9.17809 40.747 9.60121L40.7502 9.60121ZM37.0896 17.5546C37.0896 17.3064 37.0959 17.1537 37.0896 17.0042C37.0232 15.5058 37.1402 14.036 37.8135 12.6617C37.94 12.4008 38.0949 12.1527 38.196 11.8822C38.3699 11.4114 38.1707 10.9183 37.7408 10.6638C37.3235 10.4188 36.8273 10.4856 36.4953 10.8578C36.3657 11.0042 36.2614 11.1792 36.1666 11.351C35.1139 13.2216 34.9306 15.2577 35.0539 17.351C35.0602 17.4528 35.2182 17.6309 35.3036 17.6278C35.8916 17.6278 36.4795 17.5832 37.0896 17.5546Z"   fill="#FF6418" >
</path>
<path d="M123.646 17.2046C124.935 17.0551 126.219 16.9055 127.502 16.7624C127.986 16.7083 128.473 16.6415 128.957 16.6256C129.298 16.616 129.409 16.4951 129.39 16.1579C129.288 14.1569 128.84 12.2449 127.945 10.457C127.651 9.8716 127.306 9.30851 126.936 8.7645C126.478 8.09006 125.925 8.03598 125.331 8.59907C125.046 8.86949 124.796 9.18762 124.575 9.5153C124.325 9.89069 123.987 9.93841 123.614 9.83661C123.225 9.73163 122.871 9.50893 122.896 9.06036C122.919 8.63089 123.004 8.18232 123.168 7.78465C123.39 7.25019 123.393 7.10703 122.817 6.98932C122.09 6.83979 121.348 6.75072 120.608 6.67436C120.235 6.63619 119.938 6.54711 119.887 6.13036C119.833 5.70088 120.013 5.36366 120.421 5.22049C120.687 5.12505 120.984 5.08688 121.272 5.08052C121.727 5.07097 122.185 5.13142 122.64 5.11869C122.811 5.11233 123.067 5.02325 123.118 4.89918C123.175 4.76556 123.092 4.48243 122.972 4.3838C122.596 4.0784 122.179 3.82389 121.771 3.55984C121.632 3.47076 121.474 3.40395 121.319 3.34033C120.997 3.20353 120.756 2.99992 120.829 2.61498C120.908 2.19823 121.167 1.88964 121.604 1.90873C121.97 1.92463 122.356 2.02325 122.691 2.17596C123.118 2.37002 123.5 2.66588 123.914 2.89176C124.047 2.96175 124.262 3.01583 124.37 2.9522C124.474 2.89176 124.55 2.65952 124.528 2.5259C124.445 2.06143 124.322 1.60014 124.202 1.14202C124.06 0.601197 124.174 0.241707 124.55 0.0794587C124.964 -0.0986961 125.429 0.054008 125.663 0.528027C125.871 0.947963 125.991 1.41244 126.143 1.85782C126.181 1.97235 126.168 2.11233 126.228 2.21095C126.307 2.33821 126.462 2.54181 126.538 2.52272C126.68 2.48773 126.861 2.33502 126.899 2.19823C127.022 1.72739 127.117 1.24065 127.174 0.757083C127.221 0.349872 127.363 0.08264 127.803 0.063552C128.214 0.0476453 128.574 0.346691 128.602 0.782534C128.628 1.17702 128.606 1.58105 128.565 1.97553C128.514 2.4241 128.498 2.8504 128.751 3.26079C128.893 3.48985 129.026 3.76026 129.055 4.02431C129.115 4.6224 129.456 4.9469 129.924 5.26821C132.516 7.06249 134.881 9.11445 136.597 11.7995C137.308 12.913 137.833 14.1473 138.443 15.3308C138.57 15.5757 138.658 15.8398 138.813 16.0625C139.724 17.3668 139.888 18.8398 139.777 20.3668C139.755 20.6881 139.575 21.0063 139.442 21.3149C138.026 24.633 135.728 27.2131 132.715 29.1123C131.16 30.0922 129.481 30.878 127.825 31.6828C126.794 32.1855 126.108 32.914 125.792 34.0179C125.261 35.8663 124.556 37.6415 123.513 39.264C121.932 41.7263 119.83 43.4538 116.884 43.9628C114.526 44.37 112.313 43.8737 110.214 42.7793C108.633 41.9554 107.286 40.861 106.313 39.3308C105.937 38.739 105.327 38.6054 104.821 38.9554C104.309 39.3053 104.22 39.8907 104.609 40.4951C105.918 42.528 107.761 43.9278 109.907 44.9394C111.681 45.7761 113.546 46.2374 115.525 46.177C115.676 46.1738 115.879 46.2215 115.977 46.3233C117.576 47.9649 118.679 49.8769 118.629 52.2311C118.575 54.7889 116.751 58.212 113.04 58.4569C111.981 58.5269 110.912 58.5047 109.847 58.4824C109.474 58.476 109.348 58.5651 109.31 58.9437C109.028 61.7337 108.725 64.5206 108.428 67.3074C108.33 68.2205 108.229 69.1335 108.153 70.0497C108.14 70.1992 108.203 70.3901 108.298 70.5047C108.867 71.2045 109.544 71.7549 110.416 72.0444C110.716 72.143 111.023 72.2607 111.292 72.4262C112.325 73.0529 112.319 74.2205 112.006 75.0667C111.968 75.1685 111.813 75.283 111.7 75.2957C109.041 75.6012 106.389 75.792 103.778 74.9426C103.36 74.8058 103.199 74.5927 103.231 74.1473C103.398 71.9681 103.028 69.862 102.453 67.7592C101.625 64.7337 100.929 61.6733 100.161 58.6319C100.082 58.3138 99.9336 57.9956 99.747 57.7252C98.8303 56.405 97.8819 55.1102 96.9683 53.7867C96.7407 53.4591 96.472 53.3255 96.0959 53.3223C94.9294 53.3064 93.883 53.6849 92.8967 54.2735C92.3846 54.5789 91.8915 54.897 91.2561 54.8907C89.7577 54.8811 89.0527 53.7613 89.7134 52.4029C90.3393 51.1144 91.3383 50.1568 92.4352 49.2883C92.7323 49.0529 93.0421 48.8207 93.3677 48.6266C93.6807 48.4389 93.7439 48.2099 93.6775 47.8599C93.3235 45.9702 93.295 44.0773 93.7977 42.2067C94.6512 39.0285 96.6522 36.862 99.6396 35.5831C101.192 34.9183 102.842 34.7783 104.498 34.6351C107.413 34.3774 110.226 33.6743 112.948 32.5863C115.869 31.4156 118.338 29.6468 120.241 27.1017C121.714 25.1325 122.486 22.9437 122.407 20.4686C122.378 19.5556 121.686 19.0338 120.952 19.3647C120.437 19.5969 120.295 20.0551 120.32 20.5832C120.39 22.0466 120.07 23.4209 119.343 24.6839C118.31 26.4782 116.906 27.9352 115.189 29.0773C114.62 29.4559 114.014 29.7772 113.302 30.2003C112.939 29.3795 112.563 28.6383 112.278 27.8589C111.671 26.2046 111.491 24.4644 111.374 22.7178C111.33 22.0784 110.909 21.6584 110.334 21.6744C109.743 21.6903 109.294 22.1547 109.325 22.8069C109.449 25.527 109.907 28.1675 111.213 30.598C111.247 30.6648 111.285 30.7316 111.317 30.8016C111.33 30.8271 111.327 30.862 111.339 30.9829C110.625 31.212 109.901 31.4697 109.161 31.6733C107.249 32.2014 105.301 32.5163 103.316 32.6309C102.257 32.6913 101.201 32.879 100.152 33.0413C99.943 33.0731 99.7376 33.2194 99.5637 33.3562C97.3825 35.0519 95.2455 36.808 93.0105 38.4304C91.9104 39.229 90.6807 39.9129 89.4194 40.4124C87.4026 41.2077 85.313 41.2427 83.2867 40.3297C82.9073 40.1579 82.5501 39.8875 82.2467 39.5948C81.6745 39.0444 81.1339 38.4591 80.6123 37.861C80.489 37.721 80.4005 37.4156 80.4701 37.2724C80.5586 37.0911 80.8209 36.9002 81.0138 36.8939C81.3267 36.8811 81.6492 37.0147 81.9463 37.0816C81.9021 36.5057 81.8452 35.9013 81.8199 35.2968C81.8072 35.0328 81.7535 34.7146 82.1455 34.6415C82.5122 34.5747 82.8473 34.6733 82.999 35.0137C83.116 35.2777 83.097 35.6054 83.1602 35.8981C83.214 36.1399 83.3025 36.3753 83.3752 36.6107C83.4258 36.598 83.4764 36.5885 83.5269 36.5757C83.5396 36.493 83.568 36.4103 83.5585 36.3308C83.4511 35.3986 83.8178 34.651 84.4658 34.0275C84.6112 33.8875 84.9242 33.703 84.9969 33.7571C85.2182 33.9257 85.4711 34.1865 85.4995 34.4347C85.528 34.6956 85.3067 34.9851 85.1929 35.2618C85.0981 35.4909 85.0064 35.7199 84.9021 35.9776C85.4395 35.615 85.8789 35.2841 86.3531 35.0137C86.5016 34.9278 86.8557 34.9342 86.9157 35.0296C87.0422 35.2205 87.1181 35.5322 87.0517 35.7359C86.9726 35.9713 86.6976 36.1303 86.5396 36.3467C86.4289 36.5026 86.372 36.6966 86.2898 36.8716C86.4352 36.9352 86.5775 37.0147 86.7292 37.0529C86.843 37.0816 86.9726 37.0529 87.0928 37.0529C88.0949 37.0402 88.098 37.0434 88.4805 36.0858C89.9947 32.2777 92.1538 28.9055 95.1159 26.0646C95.511 25.686 95.7165 25.1134 96.0548 24.6648C96.295 24.3403 96.57 24.0222 96.8925 23.7836C99.6301 21.7603 102.709 20.4686 105.965 19.5715C106.594 19.3965 107.239 19.2693 107.874 19.1229C108.074 19.0784 108.254 19.0593 108.191 18.7507C107.672 16.2788 108.478 14.1791 110.075 12.353C111.744 10.4411 113.887 9.38486 116.407 9.30533C120.108 9.18762 122.789 11.6659 123.399 15.0349C123.529 15.7507 123.567 16.4856 123.649 17.2205L123.646 17.2046Z"   fill="#FF6418" >
</path>
<path d="M103.106 101.994C102.443 102.445 101.817 103.018 101.087 103.339C98.3998 104.516 94.0092 103.705 93.0704 99.0445C92.2296 94.8706 93.3138 91.0943 95.9753 87.7888C97.6348 85.7273 99.7653 84.4643 102.392 84.0985C103.688 83.9171 104.978 83.9267 106.217 84.4261C108.06 85.1706 108.654 87.0349 107.595 88.7242C107.051 89.5863 106.264 90.1431 105.329 90.4994C105.278 90.5185 105.218 90.4994 105.085 90.4994C105.442 90.1749 105.752 89.8949 106.062 89.6149C106.04 89.5863 106.018 89.5609 105.996 89.5322C105.755 89.7136 105.518 89.8917 105.278 90.0731C105.259 90.0508 105.24 90.0253 105.221 90.0031C105.404 89.7931 105.588 89.5831 105.771 89.3732C105.74 89.3382 105.711 89.3064 105.679 89.2714C105.338 89.6022 104.997 89.9331 104.655 90.2671C104.643 90.2576 104.627 90.248 104.614 90.2385C104.693 90.124 104.772 90.0063 104.848 89.8949C104.763 89.7963 104.684 89.704 104.583 89.5831C104.491 89.6627 104.38 89.7549 104.273 89.844C104.257 89.8345 104.241 89.8249 104.225 89.8154C104.298 89.6945 104.374 89.5736 104.447 89.4527C104.962 88.5555 104.447 87.5534 103.419 87.4803C101.479 87.3466 100.157 88.3392 99.1679 89.9013C98.0141 91.721 97.6664 93.7666 97.6506 95.8727C97.6443 96.8112 97.7486 97.7688 97.9351 98.6914C98.1089 99.5535 98.6874 100.164 99.582 100.349C100.571 100.552 101.422 100.279 102.073 99.474C103.062 98.246 103.584 96.7857 104.007 95.3C104.304 94.2597 105.054 93.7507 105.951 93.4008C106.593 93.1494 107.118 93.4453 107.434 94.1038C107.876 95.0328 107.835 95.9809 107.668 96.9734C107.282 99.2831 106.934 101.599 106.625 103.918C106.53 104.625 106.606 105.353 106.609 106.072C106.609 106.346 106.615 106.562 106.305 106.75C105.904 106.995 105.55 107.338 105.24 107.698C104.845 108.153 104.421 108.045 104.071 107.765C103.318 107.163 102.462 106.607 102.446 105.468C102.446 105.331 102.421 105.191 102.449 105.06C102.654 104.109 102.873 103.158 103.087 102.21C103.106 102.121 103.113 102.032 103.119 102L103.106 101.994ZM93.6235 99.3117C93.1083 97.2439 93.2379 95.1823 93.6899 93.124C93.0735 95.1791 92.8617 97.2375 93.6235 99.3117ZM106.22 102.993C106.271 102.999 106.321 103.005 106.372 103.012C106.587 101.618 106.798 100.222 107.013 98.8282C106.966 98.8218 106.915 98.8123 106.868 98.8059C106.653 100.203 106.435 101.599 106.22 102.993Z"   fill="#251715" >
</path>
<path d="M128.842 94.0342C129.56 93.3374 130.271 92.5867 131.049 91.9122C131.766 91.2887 132.585 90.8114 133.518 90.5633C135.019 90.1656 136.091 90.9132 136.23 92.4689C136.268 92.9111 136.281 93.3534 136.309 93.8624C136.578 93.5602 136.808 93.2866 137.052 93.0257C138 92.0108 139.059 91.1423 140.39 90.6842C140.76 90.5569 141.162 90.4679 141.547 90.471C142.638 90.4742 143.384 91.1296 143.441 92.294C143.498 93.5092 143.441 94.7404 143.311 95.9525C143.166 97.3364 142.884 98.7044 142.673 100.079C142.568 100.763 142.755 100.928 143.425 100.763C143.953 100.632 144.478 100.489 145.037 100.432C144.762 100.537 144.487 100.642 144.102 100.791C144.427 100.823 144.636 100.845 144.92 100.874C144.759 100.982 144.655 101.052 144.497 101.16C144.68 101.138 144.807 101.122 144.936 101.106C144.942 101.129 144.946 101.148 144.952 101.17C144.307 101.437 143.662 101.708 143.017 101.975C143.03 102.013 143.046 102.048 143.058 102.086L144.538 101.571C144.55 101.59 144.563 101.606 144.573 101.625C144.288 101.813 144 102 143.716 102.188C143.729 102.217 143.744 102.248 143.757 102.277C144.165 102.099 144.573 101.921 144.977 101.746C144.007 102.793 142.926 103.68 141.541 104.001C140.785 104.18 140.03 104.141 139.322 103.543C138.727 103.044 138.664 102.443 138.734 101.851C139.028 99.3121 139.401 96.7829 139.736 94.2505C139.774 93.9706 139.742 93.681 139.742 93.2866C139.413 93.382 139.154 93.4074 138.946 93.5283C137.57 94.3364 136.527 95.504 135.955 96.9579C135.572 97.9314 135.56 99.0544 135.414 100.114C135.272 101.145 135.184 102.185 135.035 103.216C135.007 103.413 134.855 103.674 134.684 103.756C133.96 104.116 133.198 104.25 132.474 103.753C131.763 103.267 131.346 102.653 131.494 101.701C131.836 99.5093 132.13 97.3078 132.424 95.1095C132.484 94.6545 132.462 94.1901 132.49 93.7319C132.515 93.3406 132.297 93.2579 132.01 93.3884C131.668 93.5442 131.324 93.7319 131.033 93.9674C129.86 94.9154 128.972 96.1084 128.399 97.4987C128.175 98.0459 128.181 98.6949 128.112 99.2993C127.976 100.454 127.843 101.612 127.748 102.773C127.713 103.216 127.524 103.537 127.141 103.655C126.553 103.836 125.943 104.005 125.333 104.04C124.59 104.084 123.948 103.114 124.078 102.226C124.353 100.349 124.657 98.4754 124.925 96.5952C125.036 95.8221 125.105 95.0459 125.169 94.2664C125.2 93.8847 125.042 93.7129 124.612 93.7956C124.005 93.9101 123.718 93.5888 123.819 92.9811C123.838 92.8602 123.866 92.7394 123.882 92.6185C123.971 91.944 124.274 91.4414 124.96 91.2314C125.757 90.9864 126.544 90.7128 127.35 90.4901C127.881 90.3438 128.257 90.6078 128.516 91.0723C129.013 91.9472 129.054 92.873 128.867 93.8338C128.852 93.9196 128.848 94.0087 128.845 94.0342L128.842 94.0342ZM142.549 98.5517C142.603 98.5613 142.657 98.5676 142.707 98.5772C142.9 97.2824 143.093 95.9844 143.286 94.6895L143.131 94.6641C142.938 95.9589 142.742 97.2537 142.549 98.5517ZM134.757 100.658C134.814 100.667 134.867 100.674 134.924 100.683C135.051 99.9579 135.177 99.2294 135.301 98.504C135.263 98.4976 135.228 98.4913 135.19 98.4817C135.044 99.2071 134.899 99.9324 134.757 100.658Z"   fill="#251715" >
</path>
<path d="M69.7982 119.339C69.3904 119.727 68.9921 120.125 68.5685 120.491C68.4705 120.577 68.3283 120.936 68.1259 120.554C68.1196 120.545 67.9963 120.599 67.9268 120.624C67.4115 120.841 66.8994 121.057 66.3493 121.286C66.3493 121.996 66.343 122.775 66.3493 123.555C66.3557 124.146 65.7392 124.919 65.1797 124.811C64.8098 124.741 64.4684 124.35 64.1776 124.041C63.7856 123.621 63.675 123.103 63.7761 122.511C63.8425 122.132 63.7888 121.732 63.7888 121.293C62.9985 121.938 62.2587 121.989 61.4558 121.49C61.3862 121.445 61.3135 121.359 61.2977 121.283C61.1997 120.838 61.1049 120.389 61.0385 119.937C61.0259 119.842 61.1207 119.714 61.1934 119.622C61.8035 118.859 62.42 118.101 63.0301 117.338C63.0554 117.306 63.068 117.265 63.0933 117.214C62.2998 117.704 62.0343 117.529 61.2535 116.727C61.0954 116.565 60.8457 116.387 60.8425 116.208C60.8362 115.884 60.9026 115.502 61.0828 115.251C61.3009 114.945 61.6707 114.751 61.8857 114.583C62.2113 114.544 62.4769 114.56 62.7013 114.474C63.1217 114.309 63.675 114.185 63.8868 113.857C64.1112 113.507 64.0069 112.938 64.0353 112.467C64.0638 112.037 64.1238 111.605 64.0859 111.182C64.0543 110.812 63.8931 110.459 63.8172 110.09C63.7856 109.944 63.7698 109.715 63.852 109.639C64.6897 108.853 65.7487 108.891 66.5485 109.718C66.833 110.011 66.912 110.303 66.7761 110.749C66.577 111.398 66.5453 112.098 66.4347 112.836C67.2914 112.658 67.6233 113.253 68.0943 113.797C68.5938 113.635 69.1439 113.437 69.7002 113.278C69.9531 113.205 70.0385 113.071 70.0511 112.826C70.0827 112.123 70.1365 111.417 70.1712 110.714C70.1902 110.319 69.9816 110.062 69.6244 109.874C69.8298 109.384 70.0069 108.897 70.6012 108.716C70.8477 108.639 71.0722 108.312 71.2872 108.331C71.8024 108.375 72.343 108.487 72.7982 108.722C72.9911 108.821 73.0922 109.304 73.0669 109.597C73.0005 110.475 72.852 111.347 72.7224 112.311C73.0163 112.241 73.2155 112.196 73.4115 112.152C73.4115 111.681 73.4589 111.659 73.8825 111.831C74.1322 111.929 74.3946 112.025 74.657 112.053C75.2576 112.117 76.0701 113.119 75.735 113.752C75.5422 114.115 75.3398 114.567 74.8024 114.602C74.559 114.618 74.3219 114.704 74.0817 114.704C73.3546 114.71 72.95 115.117 72.7034 115.804C74.5211 117.618 76.2313 119.622 79.029 119.982C79.0511 119.982 79.0701 120.004 79.1143 120.029C79.0068 120.049 78.9215 120.064 78.7887 120.09C78.8962 120.134 78.9657 120.166 79.0922 120.217C78.9247 120.236 78.814 120.246 78.5864 120.271C78.7824 120.319 78.8678 120.341 78.9942 120.37C78.9057 120.411 78.8425 120.44 78.7413 120.488C78.8677 120.513 78.9594 120.535 79.0543 120.554C79.0543 120.577 79.0574 120.596 79.0606 120.618C78.5232 120.663 77.9826 120.707 77.4452 120.752C77.4452 120.774 77.4452 120.796 77.4452 120.822L78.7445 120.822C78.7445 120.838 78.7508 120.853 78.7539 120.869C78.4852 120.943 78.2165 121.019 77.9447 121.092C77.9478 121.118 77.951 121.143 77.9573 121.168C78.3209 121.137 78.6876 121.105 79.0511 121.073C79.0574 121.102 79.0637 121.13 79.0701 121.156C78.3525 121.343 77.6317 121.522 76.9173 121.719C76.6897 121.782 76.4779 121.922 76.2503 121.973C76.0258 122.021 75.7476 122.075 75.5611 121.986C75.1818 121.808 74.8119 121.573 74.5021 121.289C73.8952 120.733 73.3356 120.125 72.7002 119.479C72.6813 119.66 72.6528 119.775 72.6623 119.883C72.7666 121.21 72.8836 122.533 72.9784 123.863C72.9879 124.016 72.9342 124.2 72.8456 124.325C72.5516 124.741 72.2577 125.171 71.9004 125.53C71.7613 125.67 71.4484 125.677 71.2144 125.68C70.5506 125.696 70.0448 125.206 69.8994 124.563C69.8235 124.232 69.6086 123.93 69.4379 123.628C69.2071 123.221 68.9573 122.82 68.7677 122.377C68.8752 122.46 68.9826 122.543 69.1502 122.673C68.9289 122.234 68.6539 121.897 68.7108 121.48C69.0269 121.598 69.2861 121.728 69.5611 121.779C69.6623 121.798 69.8994 121.623 69.9025 121.528C69.931 120.812 69.9184 120.093 69.9184 119.377C69.8804 119.361 69.8425 119.349 69.8046 119.333L69.7982 119.339ZM66.3841 119.909C67.4684 118.668 68.499 117.491 69.5295 116.31C69.4948 116.275 69.46 116.24 69.4252 116.205C69.0111 116.31 68.6444 116.781 68.1702 116.406C67.8288 116.135 67.5095 115.833 67.1302 115.505C66.46 115.671 66.2387 115.967 66.3904 116.644C66.6939 116.364 66.9879 116.097 67.2819 115.83C67.304 115.849 67.323 115.865 67.3451 115.884C67.225 116.094 67.1017 116.307 66.9816 116.514C67.1144 116.53 67.2187 116.542 67.3451 116.558C67.1112 116.921 66.9026 117.242 66.6971 117.564C66.7192 117.576 66.7413 117.592 66.7635 117.605C66.8741 117.506 66.9879 117.408 67.0985 117.309C67.1333 117.331 67.1681 117.354 67.2029 117.376C66.5517 118.054 66.0111 118.766 66.3904 119.909L66.3841 119.909Z"   fill="#251715" >
</path>
<path d="M0.0600485 98.4047C0.186493 98.8151 0.316099 99.2255 0.442544 99.6359C0.474155 99.6295 0.508927 99.6232 0.540539 99.6168C0.483638 99.2955 0.426738 98.9742 0.372999 98.6529C0.395127 98.6465 0.417255 98.6401 0.436222 98.6338C0.540539 98.8978 0.648017 99.165 0.752334 99.4291C0.783945 99.4164 0.818717 99.4036 0.850328 99.3941C0.698595 98.9392 0.546861 98.4842 0.395127 98.0325C0.407772 98.0261 0.423577 98.0198 0.436222 98.0102C0.521572 98.1279 0.606922 98.2425 0.711239 98.3856C0.815556 98.1502 0.910389 97.9434 1.00522 97.7303C1.12535 97.9371 1.25811 98.1725 1.3972 98.4047C2.22225 99.7822 3.42348 100.469 5.02933 100.453C6.18946 100.441 7.3243 100.304 8.32005 99.6772C8.72468 99.4227 9.10401 99.0282 9.33161 98.6083C9.69198 97.9466 9.44857 97.3008 8.75945 97.0049C7.9502 96.6614 7.0967 96.4228 6.26849 96.1205C5.17158 95.7197 4.01461 95.4238 3.00621 94.8607C1.43197 93.9827 0.916712 92.497 1.2265 90.6996C1.64693 88.2627 3.13582 86.7007 5.20003 85.5745C6.64782 84.7856 8.20309 84.407 9.83739 84.3561C11.5602 84.302 12.9132 85.3041 13.0902 86.7484C13.2767 88.2882 12.6792 89.4366 11.301 90.1556C11.0228 90.3019 10.732 90.4133 10.3969 90.4642C10.713 90.1683 11.0291 89.8756 11.3452 89.5798C11.3326 89.5575 11.3168 89.5352 11.3041 89.5162C10.8521 89.8025 10.4001 90.0888 9.94803 90.3783C9.9259 90.3656 9.90377 90.3497 9.88165 90.3369C9.967 90.1779 10.0523 90.022 10.182 89.7866C9.97332 89.9361 9.83423 90.0379 9.69198 90.1397C9.66669 90.1142 9.63824 90.0856 9.61295 90.0602C9.76468 89.847 9.91958 89.6339 10.0713 89.4207C10.0587 89.4048 10.046 89.3889 10.0334 89.373C9.93538 89.443 9.84055 89.5098 9.71727 89.5989C9.98912 88.6604 9.72359 88.2182 8.75629 88.1068C7.48236 87.9605 6.30326 88.2532 5.29486 89.0867C5.11152 89.2394 4.95978 89.4462 4.83966 89.6561C4.48245 90.2924 4.56464 90.8396 5.18738 91.1991C5.86702 91.5904 6.60356 91.9021 7.34327 92.163C8.37695 92.5225 9.45173 92.7579 10.4823 93.1238C11.753 93.5723 12.7709 94.3295 12.9068 95.8151C13.0112 96.9731 12.8183 98.112 12.4011 99.1969C11.3769 101.872 9.26207 103.237 6.6415 103.956C5.38021 104.303 4.07783 104.386 2.8039 104.096C1.8366 103.877 1.11902 103.231 0.666983 102.33C0.170688 101.335 -0.135941 99.5818 0.0568874 98.4143L0.0600485 98.4047ZM11.5444 100.148C11.5855 100.167 11.6266 100.183 11.6677 100.202C11.772 100.043 11.889 99.8936 11.9743 99.725C12.5654 98.5542 12.8563 97.3072 12.7108 96.0028C12.6539 95.4811 12.3726 94.9816 12.1766 94.479C12.1513 94.4154 12.0344 94.3867 11.8605 94.2786C13.087 96.391 12.4896 98.2806 11.5444 100.148Z"   fill="#251715" >
</path>
<path d="M120.379 116.488C120.733 116.294 121.011 116.193 121.22 116.011C121.334 115.913 121.41 115.664 121.375 115.508C121.261 114.999 121.21 114.583 121.779 114.271C122.155 114.067 122.446 113.708 122.734 113.456C122.908 113.574 123.142 113.829 123.24 113.784C123.616 113.615 124.204 113.72 124.251 113.055C124.28 112.661 124.359 112.266 124.453 111.881C124.564 111.42 124.542 111.026 124.128 110.828C124.163 110.475 124.22 110.17 124.22 109.864C124.223 109.311 124.419 109.063 124.943 108.916C125.591 108.735 126.201 108.728 126.83 109.028C127.535 109.362 127.867 109.982 127.687 110.832C127.63 111.102 127.564 111.366 127.497 111.636C127.434 111.904 127.365 112.168 127.276 112.521C127.475 112.451 127.64 112.425 127.763 112.343C128.332 111.951 129.106 111.99 129.685 112.371C130.434 112.865 130.918 113.523 131.107 114.401C131.136 114.541 131.177 114.735 131.11 114.831C130.27 116.002 130.285 117.433 129.912 118.747C129.4 120.539 128.923 122.343 128.398 124.131C128.262 124.592 127.874 124.878 127.409 124.993C126.966 125.101 126.568 125.476 126.062 125.231C125.971 125.187 125.813 125.174 125.784 125.107C125.329 123.936 124.33 123.24 123.404 122.33C123.041 122.766 122.674 123.208 122.307 123.65C122.26 123.612 122.212 123.571 122.162 123.532C122.209 123.44 122.253 123.351 122.345 123.17C121.526 123.688 120.825 124.379 119.674 123.863C119.447 123.911 119.051 123.994 118.66 124.08C118.625 124.035 118.587 123.991 118.552 123.946C120.863 122.018 122.165 119.454 123.221 116.676C122.993 116.676 122.797 116.708 122.617 116.667C122.43 116.625 122.26 116.514 122.105 116.444C121.858 116.676 121.618 116.905 121.378 117.131C121.394 117.153 121.41 117.179 121.425 117.201C121.577 117.106 121.726 117.013 121.877 116.918C121.906 116.943 121.934 116.969 121.963 116.991C121.618 117.421 121.321 117.901 120.92 118.27C119.769 119.32 118.574 120.316 117.408 121.347C116.516 122.133 115.097 121.512 114.898 120.437C114.889 120.376 114.873 120.316 114.854 120.262C114.487 119.307 114.816 119.03 115.767 118.725C116.314 118.55 116.82 118.254 117.341 118.003C117.395 117.977 117.427 117.879 117.452 117.809C117.692 117.147 117.929 116.485 118.16 115.823C118.201 115.703 118.204 115.566 118.252 115.286C117.853 115.508 117.547 115.633 117.297 115.83C117.07 116.011 116.877 116.018 116.63 115.916C115.533 115.477 115.492 115.133 115.559 114.093C115.568 113.953 115.631 113.765 115.736 113.685C116.052 113.447 116.403 113.25 116.738 113.036C116.671 112.954 116.605 112.874 116.539 112.791C116.618 112.893 116.7 112.998 116.807 113.138C117.512 112.756 118.22 112.387 118.912 111.993C119.462 111.678 120.158 111.78 120.695 112.289C120.872 112.457 121.055 112.616 121.242 112.772C121.865 113.291 121.871 113.924 121.261 114.443C121.182 114.509 121.093 114.589 121.059 114.684C120.837 115.248 120.632 115.817 120.379 116.492L120.379 116.488ZM124.422 121.41C124.422 121.41 124.45 121.385 124.466 121.372C124.855 121.493 125.241 121.633 125.639 121.722C125.746 121.744 125.974 121.633 125.999 121.541C126.518 119.657 127.023 117.771 127.504 115.878C127.535 115.75 127.418 115.505 127.298 115.435C127.02 115.273 126.366 115.598 126.258 115.906C126.091 116.396 125.945 116.896 125.756 117.379C125.218 118.757 124.665 120.125 124.109 121.522C124.295 121.588 124.517 121.665 124.735 121.741C124.747 121.716 124.757 121.693 124.77 121.668C124.653 121.582 124.536 121.493 124.419 121.407L124.422 121.41ZM120.505 115.365C120.464 115.349 120.426 115.337 120.385 115.321C120.215 115.776 120.041 116.227 119.87 116.682C119.921 116.702 119.968 116.721 120.019 116.737C120.18 116.278 120.344 115.823 120.505 115.365Z"   fill="#251715" >
</path>
<path d="M96.2375 123.692C96.3039 123.67 96.3608 123.654 96.4367 123.629C96.2312 123.368 96.0384 123.123 95.8424 122.872C96.2059 122.999 96.5442 123.12 96.9267 123.256C96.7781 123.078 96.6485 122.926 96.522 122.776C96.5378 122.754 96.5505 122.728 96.5663 122.706C96.7971 122.837 97.0278 122.964 97.3344 123.136C97.2744 122.999 97.2396 122.922 97.1795 122.786C97.4577 122.945 97.6853 123.075 97.9951 123.25C98.1721 122.674 98.3428 122.143 98.485 121.602C98.4977 121.561 98.2827 121.383 98.21 121.405C97.7137 121.548 97.208 121.679 96.7496 121.904C96.4209 122.067 96.1395 122.188 95.8171 121.974C95.4599 121.736 95.2197 121.408 95.2292 120.957C95.2355 120.734 95.2829 120.511 95.324 120.19C94.8688 120.67 94.4769 121.093 94.0722 121.504C93.361 122.219 92.6435 122.929 91.9291 123.638C91.5118 124.052 90.9713 124.068 90.4465 124.033C90.2917 124.023 90.1494 123.797 90.0072 123.66C89.8713 123.527 89.7511 123.374 89.612 123.244C89.2928 122.954 89.0178 122.655 88.9735 122.191C88.9577 122.041 88.8281 121.901 88.7491 121.758C88.7617 121.755 88.7965 121.73 88.8155 121.739C89.631 122.143 90.3011 121.933 90.9081 121.294C92.1377 119.999 93.3863 118.723 94.5685 117.346C94.2493 117.46 93.9237 117.553 93.6171 117.693C92.6687 118.128 91.7299 118.59 90.7753 119.016C90.6078 119.092 90.3486 119.102 90.1873 119.022C89.8934 118.879 89.65 118.637 89.3718 118.456C89.1158 118.291 89.0494 118.078 89.1189 117.791C89.2896 117.082 89.473 116.477 90.3359 116.217C91.888 115.746 93.3926 115.119 94.9478 114.547L94.9478 113.809C94.2998 114.2 93.6929 114.267 93.1429 113.681C92.6593 113.169 92.321 112.635 92.7478 111.878C93.3452 111.715 94.0217 111.547 94.6855 111.34C94.8562 111.286 95.1091 111.13 95.1185 111.003C95.147 110.646 95.3208 110.227 94.9194 109.943C94.8562 109.899 94.7835 109.87 94.7234 109.826C94.3156 109.53 94.3125 109.269 94.6918 108.951C94.9921 108.7 95.2829 108.436 95.5706 108.165C95.8203 107.93 96.2818 107.952 96.8002 108.248C96.8539 108.277 96.895 108.327 96.9456 108.359C97.6684 108.802 97.9287 109.437 97.7264 110.262C97.7137 110.319 97.7169 110.379 97.7137 110.437C97.7517 110.452 97.7928 110.468 97.8307 110.484C97.8971 110.328 97.9666 110.176 98.0551 109.975C98.7379 110.166 99.348 110.506 99.7684 111.181C99.9265 110.78 100.1 110.405 100.224 110.013C100.401 109.46 100.726 109.314 101.241 109.597C101.57 109.778 101.905 109.95 102.228 110.141C102.522 110.316 102.623 111.171 102.392 111.585C102.234 111.865 102.041 112.123 101.842 112.425C101.912 112.476 101.994 112.584 102.066 112.581C102.762 112.552 103.189 113.105 103.745 113.373C103.887 113.443 103.922 113.748 103.998 113.952C104.036 114.05 104.017 114.187 104.08 114.251C104.453 114.645 104.169 115.03 103.988 115.32C103.773 115.669 103.432 115.946 102.92 115.832C101.57 115.53 100.262 115.902 98.9434 116.118C98.798 116.143 98.6779 116.338 98.5451 116.455C98.5672 116.5 98.5893 116.544 98.6083 116.592C99.0445 116.439 99.4744 116.261 99.917 116.143C100.088 116.099 100.303 116.175 100.483 116.236C101.197 116.474 101.488 116.948 101.368 117.639C101.295 118.062 100.805 118.319 100.397 118.335C99.6167 118.367 98.8264 118.453 98.0709 118.637C97.8781 118.685 97.7864 119.172 97.5905 119.582C98.2069 119.436 98.6779 119.334 99.1394 119.21C100.002 118.978 100.622 119.283 101.115 120.053C101.472 120.61 101.46 121.03 101.156 121.628C100.758 122.407 100.568 123.295 100.28 124.131C100.167 124.462 100.034 124.79 99.898 125.114C99.6451 125.725 98.6178 126.161 98.0014 125.925C97.9319 125.9 97.8465 125.871 97.8054 125.817C97.2775 125.114 96.756 124.405 96.2281 123.686L96.2375 123.692ZM98.3902 113.016C97.5272 112.997 97.3407 113.214 97.6063 113.968C97.875 113.64 98.1184 113.344 98.3902 113.016ZM99.1994 115.685C99.2057 115.739 99.2152 115.794 99.2215 115.844C100.129 115.704 101.036 115.561 101.946 115.421C101.94 115.38 101.934 115.339 101.927 115.297C101.017 115.428 100.107 115.555 99.1994 115.685Z"   fill="#251715" >
</path>
<path d="M28.4521 100.351C28.1581 100.586 27.9306 100.768 27.6903 100.958C27.9495 100.974 28.1898 100.987 28.43 101.003C28.4363 101.028 28.4458 101.054 28.4521 101.079C27.8452 101.372 27.2352 101.661 26.6283 101.954C26.6378 101.98 26.6473 102.005 26.6567 102.03C27.0993 101.871 27.5418 101.712 27.9875 101.55C28.0001 101.576 28.0127 101.598 28.0286 101.623L27.1688 102.183C27.1846 102.212 27.2036 102.24 27.2194 102.269C27.6145 102.094 28.0064 101.922 28.4015 101.747C28.4268 101.782 28.4521 101.814 28.4774 101.849C27.9021 102.317 27.3585 102.829 26.7453 103.236C25.9392 103.771 25.0637 104.197 24.0491 104.044C23.7203 103.996 23.3916 103.856 23.0945 103.704C22.1494 103.214 22.1273 102.364 22.2537 101.448C22.5951 98.9798 22.9396 96.5081 23.2367 94.0332C23.3284 93.2665 23.085 93.1393 22.4181 93.5465C20.9546 94.4467 19.9874 95.7764 19.2161 97.2938C18.5966 98.5153 18.4228 99.8196 18.3153 101.149C18.2647 101.76 18.2236 102.374 18.1162 102.975C18.0782 103.185 17.9044 103.43 17.7211 103.548C17.0762 103.968 16.3429 104.117 15.5812 104.038C14.9458 103.971 14.3706 103.023 14.4843 102.244C14.8826 99.4856 15.303 96.7339 15.695 93.9728C15.9447 92.2136 16.1596 90.4513 16.384 88.689C16.4061 88.5235 16.4093 88.3518 16.4061 88.1832C16.3935 87.7028 16.3018 87.6297 15.8151 87.6996C15.2461 87.7824 14.9522 87.4833 15.0407 86.9044C15.0628 86.7676 15.0912 86.634 15.1102 86.4972C15.205 85.8196 15.5274 85.3329 16.207 85.123C16.9593 84.8907 17.7021 84.6108 18.4607 84.4104C19.0423 84.2577 19.3489 84.4327 19.6744 84.9671C20.1644 85.7751 20.2497 86.6372 20.1075 87.5724C19.7535 89.9169 19.4595 92.274 19.1403 94.6249C19.1339 94.6662 19.1497 94.7076 19.1592 94.7744C19.5607 94.2527 19.9242 93.7278 20.3445 93.2538C21.3402 92.1341 22.4718 91.1829 23.8973 90.6676C25.6864 90.0187 26.9634 90.8235 26.9728 92.729C26.9792 94.1732 26.7705 95.6237 26.6062 97.0648C26.4797 98.1909 26.2806 99.3043 26.1068 100.424C26.0499 100.796 26.2648 100.863 26.5398 100.809C27.0013 100.717 27.4533 100.583 27.9116 100.469C28.0665 100.43 28.2245 100.395 28.4489 100.341L28.4521 100.351ZM26.0088 98.0764C26.4039 96.5367 26.6251 94.9621 26.5335 93.3493C26.3596 94.9239 26.1826 96.5017 26.0088 98.0764Z"   fill="#251715" >
</path>
<path d="M43.2545 100.709C43.0965 100.795 42.9542 100.871 42.7203 100.999L43.1439 100.999C43.1502 101.024 43.1565 101.05 43.1628 101.075C42.5938 101.384 42.0248 101.692 41.4526 102.001C41.4621 102.03 41.4716 102.058 41.481 102.087C41.9742 101.918 42.4705 101.75 42.9637 101.578C42.9763 101.597 42.989 101.619 43.0016 101.638C42.7108 101.826 42.4168 102.01 42.1259 102.198C42.1417 102.227 42.1544 102.259 42.1702 102.287L43.2893 101.804C43.3146 101.845 43.3399 101.883 43.3652 101.925C42.9637 102.259 42.5812 102.618 42.1576 102.92C41.2029 103.604 40.2039 104.203 38.9647 104.044C38.6074 103.999 38.2629 103.814 37.9278 103.665C37.7444 103.582 37.5895 103.436 37.3903 103.293C36.8403 101.715 37.5421 100.156 37.6685 98.4693C37.5358 98.6952 37.4409 98.8543 37.3492 99.0166C36.5052 100.493 35.5947 101.918 34.4851 103.216C33.7359 104.094 32.876 104.244 31.8644 103.849C31.5104 103.713 31.1658 103.547 30.8338 103.359C30.0309 102.905 29.6041 102.275 29.6231 101.276C29.6768 98.3675 30.1289 95.5709 31.5957 93.0192C32.228 91.9216 33.0246 90.9671 34.2986 90.6139C35.9772 90.1526 37.3651 90.8334 38.6327 91.8611C38.737 91.947 38.8161 92.0679 38.9014 92.1665C39.619 91.4093 40.4821 91.0212 41.4526 90.8748C41.9868 90.7953 42.2998 90.9671 42.4105 91.4889C42.5211 91.9979 42.5875 92.5611 42.4927 93.0669C42.0754 95.2623 41.5917 97.4417 41.1301 99.6274C41.1301 99.6433 41.1238 99.6561 41.1207 99.672C40.9152 100.792 41.0574 100.922 42.1544 100.716C42.4927 100.652 42.853 100.706 43.2514 100.706L43.2545 100.709ZM33.2269 100.248C33.2269 100.493 33.2016 100.741 33.2333 100.983C33.2902 101.403 33.4893 101.495 33.8149 101.234C34.0742 101.027 34.3176 100.786 34.5325 100.531C36.148 98.6443 37.3492 96.5031 38.2692 94.2028C38.3292 94.0532 38.2692 93.7414 38.1522 93.6524C37.697 93.3087 37.2228 92.9524 36.7043 92.7329C35.9962 92.4338 35.4209 92.6183 34.9814 93.2515C34.6811 93.6842 34.4219 94.171 34.2512 94.6705C33.6411 96.4776 33.385 98.358 33.2301 100.251L33.2269 100.248ZM42.0027 93.9864L41.8541 93.9514C41.5316 95.3513 41.2092 96.7513 40.8867 98.1512C40.9373 98.1639 40.9879 98.1766 41.0416 98.1894C41.3641 96.7894 41.6865 95.3895 42.0058 93.9864L42.0027 93.9864Z"   fill="#251715" >
</path>
<path d="M122.485 101.153C122.339 101.242 122.197 101.332 122.052 101.421C122.058 101.436 122.064 101.456 122.074 101.471C122.301 101.411 122.529 101.347 122.87 101.255C122.485 101.573 122.188 101.818 121.887 102.063C121.897 102.085 121.909 102.105 121.919 102.127C122.248 102 122.573 101.872 122.902 101.742C121.597 102.928 120.338 104.207 118.385 104.036C118.047 104.007 117.718 103.81 117.399 103.663C117.218 103.581 117.063 103.437 116.88 103.307C116.264 101.748 117.007 100.202 117.114 98.5066C116.735 99.1492 116.444 99.7155 116.084 100.237C115.379 101.252 114.645 102.251 113.902 103.24C113.295 104.048 112.47 104.268 111.547 103.915C110.972 103.695 110.412 103.399 109.891 103.068C109.36 102.731 109.088 102.206 109.088 101.554C109.094 98.5575 109.534 95.6626 111.057 93.0254C111.699 91.9152 112.502 90.9577 113.798 90.6045C115.372 90.1751 116.687 90.7986 117.917 91.7084C118.002 91.772 118.081 91.8484 118.16 91.9184C118.236 91.9884 118.312 92.0615 118.388 92.1315C119.096 91.403 119.959 91.0149 120.923 90.8749C121.47 90.7954 121.685 90.9672 121.891 91.4921C122.124 92.0902 122.064 92.6882 121.932 93.299C121.429 95.6149 120.939 97.934 120.452 100.256C120.395 100.524 120.386 100.803 120.379 101.077C120.373 101.452 120.553 101.615 120.933 101.51C121.442 101.37 121.951 101.233 122.463 101.093C122.472 101.112 122.478 101.131 122.488 101.15L122.485 101.153ZM112.619 100.419C112.647 100.622 112.669 100.835 112.704 101.045C112.767 101.417 112.967 101.475 113.245 101.252C113.457 101.08 113.659 100.893 113.842 100.689C115.356 98.9838 116.491 97.0401 117.414 94.9628C117.933 93.7985 117.86 93.5662 116.716 92.9555C116.504 92.8409 116.273 92.7518 116.042 92.6819C115.464 92.5069 114.93 92.6246 114.563 93.1081C114.263 93.5026 113.985 93.9416 113.811 94.4029C113.08 96.3339 112.85 98.373 112.622 100.422L112.619 100.419ZM121.476 93.913C121.426 93.9003 121.378 93.8907 121.328 93.878C120.999 95.2936 120.67 96.7124 120.342 98.1281C120.392 98.1408 120.443 98.1535 120.493 98.1662C120.819 96.7474 121.148 95.3318 121.473 93.913L121.476 93.913Z"   fill="#251715" >
</path>
<path d="M77.9472 94.3613C78.5952 93.6678 79.1957 92.9584 79.8659 92.3253C80.6213 91.6095 81.4748 91.0051 82.48 90.6806C82.8498 90.5597 83.2544 90.4706 83.6401 90.477C84.7654 90.4993 85.505 91.2151 85.5303 92.4621C85.5556 93.6805 85.4481 94.9053 85.3185 96.1206C85.1636 97.5648 84.9329 99.0028 84.7116 100.441C84.6579 100.794 84.8254 100.867 85.0878 100.816C85.5493 100.73 86.0076 100.613 86.466 100.504C86.6367 100.463 86.8074 100.412 87.0128 100.45C86.8484 100.533 86.6841 100.619 86.5197 100.702C86.526 100.746 86.5323 100.787 86.5418 100.832C86.9559 100.749 87.37 100.667 87.7841 100.584L87.8125 100.632C87.2372 100.953 86.6588 101.274 86.0835 101.596C86.0866 101.611 86.093 101.631 86.0961 101.646C86.5165 101.494 86.9338 101.344 87.3542 101.191C87.3668 101.214 87.3795 101.239 87.3921 101.261C86.8421 101.57 86.2921 101.875 85.7421 102.184C85.7579 102.219 85.7737 102.257 85.7864 102.292C86.1752 102.14 86.5639 101.984 86.9528 101.831C86.978 101.85 87.0065 101.869 87.0318 101.891C86.9654 101.99 86.918 102.127 86.8263 102.187C85.9729 102.722 85.1447 103.304 84.247 103.752C83.2955 104.226 82.3567 104.265 81.3989 103.536C80.7446 103.037 80.7162 102.407 80.7889 101.812C81.0607 99.5786 81.4432 97.3613 81.7593 95.1344C81.8288 94.6508 81.7877 94.1545 81.8035 93.6646C81.8162 93.3433 81.636 93.2924 81.3926 93.3815C81.165 93.4642 80.9374 93.5628 80.7383 93.6996C79.1041 94.8258 78.0294 96.4005 77.4224 98.2552C77.1285 99.1523 77.1601 100.161 77.0495 101.118C76.9831 101.697 76.9704 102.286 76.8598 102.852C76.8061 103.119 76.6291 103.434 76.4109 103.581C75.8009 103.991 75.0865 104.118 74.3563 104.051C73.721 103.994 73.1046 103.04 73.2152 102.289C73.5534 99.9858 73.9075 97.6857 74.2457 95.3857C74.3026 94.9944 74.3089 94.5936 74.3121 94.1959C74.3121 93.8778 74.173 93.7346 73.8158 93.7919C73.1204 93.9064 72.9149 93.6264 72.9813 92.9075C73.0666 91.9754 73.4839 91.3709 74.3911 91.1133C75.077 90.9192 75.7471 90.6615 76.4426 90.5088C77.0779 90.3688 77.3877 90.5724 77.7038 91.1514C78.1748 92.0167 78.1874 92.9361 78.0167 93.8778C77.9883 94.0368 77.9693 94.1991 77.944 94.3645L77.9472 94.3613ZM84.5789 98.1311C84.6326 98.1343 84.6832 98.1375 84.7369 98.1407C84.9139 96.5341 85.0909 94.9308 85.2711 93.3242C85.2174 93.3179 85.1605 93.3115 85.1068 93.3051C84.9297 94.9117 84.7559 96.5214 84.5789 98.1279L84.5789 98.1311Z"   fill="#251715" >
</path>
<path d="M49.5724 104.087C46.6487 104.192 44.6795 102.518 44.335 99.617C43.9715 96.5693 44.9229 93.9384 47.3473 91.9882C48.9719 90.6807 50.9095 90.2766 52.945 90.5439C55.0374 90.8175 56.5894 92.5195 56.7948 94.7814C56.9813 96.8365 56.621 98.8217 55.5463 100.613C54.1461 102.948 52.0347 104.052 49.5724 104.084L49.5724 104.087ZM48.3208 98.2491C48.3208 98.6308 48.2955 99.019 48.3271 99.3975C48.3935 100.164 48.5167 100.921 48.9719 101.57C49.5061 102.334 50.4733 102.452 51.0896 101.755C51.4626 101.332 51.7597 100.807 51.9715 100.279C52.591 98.739 52.7964 97.1101 52.7554 95.4654C52.7364 94.7432 52.6163 93.9924 52.3792 93.3148C52.0347 92.3382 50.9664 92.0296 50.1319 92.6467C49.7336 92.9426 49.3891 93.3848 49.1679 93.8334C48.482 95.2173 48.2986 96.7188 48.3271 98.2491L48.3208 98.2491Z"   fill="#251715" >
</path>
<path d="M40.7094 114.07C41.4745 113.8 42.2142 113.539 43.014 113.256C43.014 112.387 43.0425 111.484 42.9951 110.583C42.9824 110.348 42.7358 110.122 42.562 109.833C42.856 109.044 43.6937 108.328 44.405 108.382C44.7496 108.407 45.1005 108.487 45.4261 108.601C45.8845 108.764 45.9825 109.145 45.9509 109.603C45.8718 110.73 45.8149 111.859 45.7486 112.995C45.9888 113.065 46.1595 113.113 46.3808 113.176C46.3587 113.071 46.346 113.011 46.3492 113.027C46.5326 112.903 46.6875 112.798 46.8424 112.693C46.9277 112.635 47.0162 112.524 47.1016 112.527C47.2944 112.537 47.4778 112.629 47.5979 112.365C47.7212 112.098 47.8919 111.853 47.6833 111.554C47.6232 111.468 47.5631 111.379 47.5347 111.337C47.8318 110.542 48.5305 110.765 49.09 110.685C49.3366 110.65 49.6749 110.717 49.8582 110.873C50.7624 111.646 50.8604 112.403 50.2787 113.434C50.5031 113.758 50.7213 114.07 50.9331 114.385C51.2745 114.901 51.3314 115.46 51.1322 116.04C51.0469 116.284 51.1006 116.647 50.6549 116.641C50.5442 116.641 50.4209 116.819 50.3166 116.927C49.8867 117.373 49.3461 117.338 48.9826 116.838C48.8213 116.619 48.6538 116.405 48.4831 116.18C47.6011 117.363 46.7886 118.553 45.875 119.654C44.6864 121.088 43.4282 122.466 42.1763 123.847C41.5345 124.556 40.7442 125.078 39.8622 125.457C39.7136 125.52 39.5556 125.565 39.3627 125.549C39.4228 125.482 39.4829 125.415 39.5777 125.307C38.6704 125.501 37.7726 125.943 36.8527 125.062C36.6092 125.043 36.2046 125.008 35.8031 124.976C35.7842 124.919 35.7652 124.865 35.7462 124.808C37.3901 124.165 38.8949 123.315 40.1088 122.024C41.3101 120.745 42.5114 119.463 43.6811 118.219C43.6368 118.092 43.6336 118.05 43.6147 118.041C43.2922 117.882 43.1373 117.605 42.9508 117.296C42.5683 116.666 42.0593 116.113 41.5662 115.486C41.9518 115.543 42.2806 115.591 42.6094 115.639C42.543 115.441 42.4671 115.225 42.3628 114.926C42.6094 114.993 42.7864 115.041 42.9982 115.098L42.9982 113.52C42.5145 113.784 42.0815 114.022 41.6484 114.261C41.6642 114.296 41.6831 114.328 41.6989 114.363C42.034 114.204 42.3691 114.042 42.7011 113.882C42.7169 113.905 42.7327 113.924 42.7485 113.946C42.4766 114.185 42.2269 114.455 41.9265 114.649C41.348 115.028 41.2943 115.505 41.5124 116.11C41.6958 116.612 41.3955 117.376 41.0825 117.716C40.4439 118.41 39.7705 118.12 39.1225 117.834C38.5724 117.589 38.2215 117.108 38.0666 116.52C37.937 116.024 37.6999 115.546 37.8833 114.999C38.0129 114.608 38.1456 114.271 38.5408 114.054C38.8601 113.879 39.094 113.558 39.4038 113.364C40.2131 112.858 40.3775 112.931 40.6525 113.851C40.6747 113.921 40.6936 113.991 40.7158 114.07L40.7094 114.07ZM45.8371 115.117C46.7538 114.102 46.738 113.695 45.8371 113.195L45.8371 115.117ZM45.1637 115.629C45.1922 115.629 45.2206 115.629 45.2491 115.626L45.2491 111.369C45.2206 111.369 45.1922 111.369 45.1637 111.369L45.1637 115.629Z"   fill="#251715" >
</path>
<path d="M150.063 98.4726C150.161 99.2108 150.192 99.933 150.36 100.62C150.616 101.673 151.52 102.151 152.737 101.883C153.445 101.727 154.128 101.451 154.82 101.234C155.019 101.171 155.222 101.123 155.377 101.078C155.528 101.677 155.238 102.011 154.697 102.227C154.827 102.281 154.896 102.31 154.978 102.348C153.657 103.433 152.25 104.196 150.48 104.088C148.463 103.964 147.176 102.905 146.481 101.059C145.523 98.514 146.342 93.6524 149.411 91.632C151.166 90.4771 153.075 90.159 155.083 90.7126C156.398 91.0753 157.112 92.0489 157.327 93.3947C157.529 94.6546 157.096 95.6409 156.075 96.3918C154.65 97.4418 153.006 97.9095 151.311 98.2467C150.938 98.3199 150.562 98.3803 150.06 98.4726L150.063 98.4726ZM150.297 96.7991C151.28 96.5827 152.143 96.3123 152.911 95.7905C154.068 95.0078 154.137 93.7797 153.692 92.7106C153.527 92.3161 153.29 92.2461 152.93 92.4911C152.63 92.6947 152.355 92.9397 152.098 93.2006C151.131 94.1806 150.591 95.3832 150.297 96.7991ZM146.459 98.1226C146.658 96.395 147.151 94.7755 148.156 93.3406C146.971 94.7119 146.528 96.3504 146.459 98.1226ZM146.791 100.865C146.876 101.651 147.986 103.067 148.754 103.28C148.359 102.908 147.938 102.583 147.616 102.182C147.281 101.766 147.041 101.272 146.791 100.865Z"   fill="#251715" >
</path>
<path d="M58.1271 103.294C58.0702 103.074 57.9374 102.797 57.9343 102.521C57.928 101.98 57.9532 101.433 58.0323 100.898C58.5982 97.0523 59.1831 93.2063 59.7554 89.3603C59.8154 88.9531 59.8344 88.5396 59.8534 88.126C59.8692 87.7825 59.7206 87.6329 59.3538 87.6616C58.5919 87.7252 58.4465 87.4993 58.5255 86.7359C58.6203 85.8197 59.0566 85.2439 59.9356 84.9862C60.5932 84.7954 61.2318 84.5472 61.8958 84.385C62.5787 84.2164 63.0497 84.4486 63.3975 85.053C63.818 85.7783 63.9919 86.5609 63.8465 87.3975C63.3912 90.022 62.8853 92.6369 62.4775 95.2677C62.1961 97.0809 62.0412 98.9133 61.8167 100.857C62.2435 100.8 62.5818 100.771 62.9106 100.707C63.2205 100.647 63.5366 100.427 63.818 100.822C63.7674 100.921 63.7074 101.038 63.6441 101.166C63.8559 101.115 64.0804 101.064 64.3081 101.01C64.3302 101.057 64.3555 101.108 64.3776 101.156C63.7643 101.458 63.1478 101.757 62.5344 102.059C62.547 102.091 62.5565 102.123 62.5692 102.158C63.0434 102.018 63.5177 101.878 63.9919 101.735C64.014 101.77 64.0362 101.802 64.0583 101.837C63.9761 101.926 63.9034 102.031 63.8054 102.101C63.1699 102.552 62.5249 102.985 61.8958 103.443C61.1812 103.965 60.3877 104.175 59.5246 104.038C59.2274 103.99 58.9492 103.803 58.6741 103.656C58.4939 103.561 58.3358 103.43 58.1303 103.294L58.1271 103.294ZM62.0696 95.7417C62.1171 95.7512 62.1645 95.7607 62.2151 95.7671C62.5123 93.8775 62.8126 91.9847 63.1098 90.0951C63.0624 90.0888 63.015 90.0792 62.9675 90.0729C62.6672 91.9625 62.37 93.8521 62.0696 95.7385L62.0696 95.7417Z"   fill="#251715" >
</path>
<path d="M159.499 103.805C158.471 103.573 157.526 103.108 156.941 102.249C156.707 101.906 156.375 101.645 156.091 101.193C156.318 101.282 156.432 101.326 156.546 101.374L156.616 101.288C156.502 101.234 156.385 101.18 156.271 101.126C156.296 101.085 156.322 101.043 156.347 101.005C156.594 101.04 156.84 101.072 157.169 101.12C156.837 100.849 156.543 100.611 156.252 100.372C156.274 100.337 156.296 100.299 156.315 100.264C156.445 100.334 156.578 100.397 156.701 100.474C157.719 101.097 158.756 101.686 159.976 101.788C160.352 101.82 160.738 101.807 161.111 101.743C161.822 101.626 162.123 101.161 161.892 100.48C161.746 100.054 161.519 99.6402 161.25 99.2743C160.7 98.5203 160.087 97.8172 159.527 97.0695C158.816 96.1245 158.354 95.0937 158.645 93.8656C158.838 93.0575 159.328 92.4371 159.948 91.9153C161.743 90.4008 163.766 90.124 165.945 90.8749C166.985 91.2344 167.215 91.7148 166.817 92.7457C166.612 93.277 166.264 93.7574 165.948 94.241C165.739 94.556 165.451 94.6006 165.126 94.3651C164.446 93.872 163.763 93.3852 163.068 92.9175C162.922 92.8189 162.647 92.7202 162.553 92.7902C162.407 92.8984 162.255 93.1816 162.303 93.3311C162.451 93.8179 162.625 94.3206 162.907 94.7342C163.495 95.59 164.168 96.3854 164.794 97.219C165.442 98.0812 165.856 99.0421 165.888 100.14C165.922 101.317 165.534 102.332 164.566 103.022C163.017 104.129 161.298 104.308 159.486 103.795C159.632 103.808 159.78 103.824 159.926 103.837C160.431 103.884 160.937 103.932 161.44 103.983C161.44 103.964 161.44 103.945 161.44 103.926C160.453 103.732 159.467 103.535 158.481 103.34L158.481 103.286C158.822 103.461 159.16 103.636 159.499 103.811L159.499 103.805Z"   fill="#251715" >
</path>
<path d="M71.6199 100.539C71.5219 100.708 71.4428 100.844 71.3417 101.016C71.5661 100.949 71.7622 100.892 71.955 100.835C71.9677 100.854 71.9771 100.876 71.9898 100.895C71.8633 100.981 71.7369 101.07 71.6104 101.156C71.6167 101.175 71.6199 101.191 71.6262 101.21C71.8033 101.15 71.9835 101.089 72.1637 101.026C72.1732 101.073 72.1921 101.118 72.1827 101.124C71.7527 101.496 71.3227 101.869 70.9085 102.276C71.2405 102.12 71.5725 101.964 72.0183 101.754C71.9297 101.945 71.9171 102.044 71.8602 102.085C71.1899 102.562 70.5259 103.049 69.8398 103.497C68.9546 104.079 67.9492 104.111 66.9374 104.051C66.539 104.025 66.0743 103.602 65.9699 103.201C65.7929 102.53 65.7866 101.891 65.9383 101.182C66.3241 99.3588 66.5833 97.5074 66.8868 95.6656C66.9595 95.2298 67.0228 94.7876 67.0418 94.3454C67.0576 93.9828 66.9279 93.7506 66.4663 93.8078C65.796 93.8905 65.6253 93.6488 65.6854 92.9489C65.7613 92.0582 66.1185 91.4093 67.0259 91.1516C67.7689 90.9417 68.5025 90.6777 69.2518 90.5059C69.8557 90.3691 70.2098 90.6077 70.488 91.1834C70.9085 92.0519 70.8579 92.9489 70.7093 93.8778C70.3647 96.0059 70.0612 98.1404 69.745 100.275C69.6723 100.762 69.7671 100.873 70.254 100.809C70.703 100.752 71.1425 100.631 71.623 100.533L71.6199 100.539Z"   fill="#251715" >
</path>
<path d="M67.7117 86.014C67.8096 85.8612 67.9234 85.5176 68.1574 85.349C68.8212 84.8717 69.5261 84.4549 70.231 84.0413C70.506 83.8791 70.6925 84.0859 70.8157 84.3149C71.2836 85.1708 71.7609 86.0235 72.1939 86.8985C72.2698 87.0512 72.2255 87.4075 72.1086 87.4871C71.3468 88.0089 70.5502 88.4829 69.76 88.9634C69.6841 89.0079 69.5482 88.9952 69.4597 88.9602C68.7674 88.6738 67.699 86.9621 67.7117 86.0171L67.7117 86.014Z"   fill="#251715" >
</path>
</g>
<defs>
<clipPath id="clip-path-jAWpZJ3t8R2NGxsZ-oL76">
<path d="M0 126L167 126L167 0L0 0L0 126Z" fill="white"/>
</clipPath>
</defs>
</svg>
