<svg xmlns="http://www.w3.org/2000/svg" xmlns:xlink="http://www.w3.org/1999/xlink" width="12" height="11.99853515625" viewBox="0 0 12 11.99853515625" fill="none">
<path d="M12 4.49258L12 0L7.5074 0L9.17953 1.67211L7.48862 3.36303C6.71484 2.81671 5.77066 2.49566 4.75142 2.49566C2.12728 2.49566 0 4.62294 0 7.24706C0 9.87118 2.1273 11.9985 4.75141 11.9985C7.37551 11.9985 9.50284 9.87122 9.50284 7.24708C9.50284 6.28498 9.21661 5.38986 8.72505 4.64167L10.4371 2.9297L12 4.4926L12 4.49258ZM4.75142 10.498C2.95598 10.498 1.50045 9.04252 1.50045 7.24708C1.50045 5.45164 2.95598 3.99611 4.75142 3.99611C6.54687 3.99611 8.00239 5.45164 8.00239 7.24708C8.00239 9.04252 6.54687 10.498 4.75142 10.498Z"   fill="#FFFFFF" >
</path>
</svg>
