<svg xmlns="http://www.w3.org/2000/svg" xmlns:xlink="http://www.w3.org/1999/xlink" width="18" height="14.60400390625" viewBox="0 0 18 14.60400390625" fill="none">
<path d="M12.0271 0.00311866L12.0271 -0.000123024L12.8711 -0.000123024L13.1795 0.0614689C13.3851 0.101455 13.5717 0.153857 13.7394 0.21869C13.9071 0.283524 14.0695 0.359169 14.2263 0.445608C14.3832 0.532048 14.5255 0.620124 14.6532 0.709805C14.7798 0.798417 14.8934 0.892425 14.9941 0.991832C15.0936 1.09232 15.2489 1.11826 15.4599 1.06963C15.6709 1.02101 15.8981 0.953466 16.1416 0.867027C16.385 0.780587 16.6258 0.683337 16.8639 0.575275C17.1019 0.467214 17.2469 0.398604 17.2989 0.369429C17.3497 0.339184 17.3768 0.322975 17.38 0.320803L17.3832 0.315941L17.3995 0.307837L17.4157 0.299733L17.4319 0.291628L17.4482 0.283524L17.4514 0.278662L17.4563 0.27542L17.4612 0.272178L17.4644 0.267316L17.4806 0.262453L17.4969 0.259212L17.4936 0.283524L17.4887 0.307837L17.4806 0.332149L17.4725 0.356462L17.4644 0.37267L17.4563 0.388879L17.4482 0.413191C17.4428 0.4294 17.4374 0.451006 17.4319 0.478025C17.4265 0.505044 17.3751 0.61309 17.2777 0.802193C17.1804 0.991297 17.0586 1.18309 16.9125 1.37759C16.7665 1.57209 16.6356 1.71904 16.5198 1.81846C16.4029 1.91895 16.3255 1.98918 16.2877 2.02917C16.2498 2.07023 16.2038 2.10804 16.1497 2.14263L16.0685 2.19612L16.0523 2.20422L16.0361 2.21232L16.0329 2.21719L16.028 2.22043L16.0231 2.22367L16.0199 2.22853L16.0036 2.23664L15.9874 2.24474L15.9842 2.2496L15.9793 2.25285L15.9744 2.25609L15.9712 2.26095L15.9679 2.26581L15.963 2.26905L15.9582 2.2723L15.9549 2.27716L16.0361 2.27716L16.4905 2.17991C16.7935 2.11507 17.083 2.03674 17.3589 1.94489L17.7971 1.79901L17.8458 1.7828L17.8702 1.7747L17.8864 1.76659L17.9026 1.75849L17.9189 1.75039L17.9351 1.74228L17.9676 1.73742L18 1.73418L18 1.76659L17.9919 1.76984L17.9838 1.7747L17.9806 1.77956L17.9757 1.7828L17.9708 1.78604L17.9676 1.79091L17.9643 1.79577L17.9594 1.79901L17.9546 1.80225L17.9513 1.80711L17.9481 1.81198L17.9432 1.81522L17.9351 1.83143L17.927 1.84764L17.9221 1.85088C17.9199 1.85412 17.8512 1.94596 17.716 2.12642C17.5807 2.30795 17.5077 2.39979 17.4969 2.40196C17.486 2.4052 17.4709 2.42141 17.4514 2.45059C17.433 2.48083 17.3183 2.60133 17.1073 2.81204C16.8963 3.02275 16.6897 3.21021 16.4873 3.37447C16.2839 3.53979 16.1811 3.74293 16.1789 3.9839C16.1757 4.22379 16.1632 4.49502 16.1416 4.79757C16.1199 5.10013 16.0794 5.42699 16.0199 5.77817C15.9603 6.12936 15.8684 6.52647 15.7439 6.96949C15.6195 7.41252 15.468 7.84475 15.2895 8.26617C15.1109 8.68758 14.9243 9.06577 14.7295 9.40075C14.5347 9.73573 14.3562 10.0194 14.1939 10.2517C14.0316 10.484 13.8666 10.7028 13.6988 10.9081C13.5311 11.1134 13.3191 11.3447 13.0626 11.6019C12.8051 11.8579 12.6644 11.9984 12.6406 12.0233C12.6157 12.0471 12.5097 12.1357 12.3225 12.2891C12.1364 12.4436 11.9362 12.5981 11.7219 12.7527C11.5088 12.9061 11.3129 13.0341 11.1344 13.1368C10.9558 13.2394 10.7405 13.3567 10.4884 13.4885C10.2374 13.6214 9.96575 13.7446 9.67359 13.8581C9.38144 13.9715 9.07305 14.0769 8.74844 14.1741C8.42382 14.2714 8.11003 14.347 7.80705 14.401C7.50408 14.4551 7.16052 14.501 6.77639 14.5388L6.20019 14.5955L6.20019 14.6037L5.14519 14.6037L5.14519 14.5955L5.00723 14.5874C4.91526 14.582 4.83951 14.5766 4.78 14.5712C4.72049 14.5658 4.49596 14.5361 4.10642 14.4821C3.71688 14.4281 3.4112 14.374 3.18937 14.32C2.96756 14.266 2.63752 14.1633 2.19929 14.012C1.76106 13.8608 1.38613 13.7079 1.07449 13.5533C0.76395 13.3999 0.56918 13.3027 0.490185 13.2616C0.412277 13.2216 0.32463 13.1719 0.227245 13.1125L0.0811675 13.0233L0.0779376 13.0185L0.0730521 13.0152L0.0681829 13.012L0.0649367 13.0071L0.0487059 12.999L0.032475 12.9909L0.0292451 12.9861L0.0243596 12.9828L0.0194904 12.9796L0.0162442 12.9747L0.0130143 12.9698L0.00812877 12.9666L1.33514e-05 12.9666L1.33514e-05 12.9342L0.0162442 12.9374L0.032475 12.9423L0.105514 12.9504C0.154206 12.9558 0.286764 12.9639 0.503169 12.9747C0.719591 12.9855 0.949517 12.9855 1.19298 12.9747C1.43644 12.9639 1.68533 12.9396 1.9396 12.9018C2.19389 12.864 2.49416 12.7991 2.84041 12.7073C3.18668 12.6154 3.5048 12.5063 3.7948 12.3799C4.08371 12.2524 4.28929 12.1573 4.41157 12.0946C4.53275 12.033 4.71778 11.9185 4.96665 11.751L5.33996 11.4997L5.34321 11.4949L5.34807 11.4916L5.35296 11.4884L5.35619 11.4835L5.35944 11.4787L5.36431 11.4754L5.36919 11.4722L5.37242 11.4673L5.38865 11.4625L5.40488 11.4592L5.40813 11.443L5.413 11.4268L5.41788 11.4236L5.42111 11.4187L5.29127 11.4106C5.20471 11.4052 5.12084 11.3998 5.03969 11.3944C4.95853 11.389 4.8314 11.3647 4.65826 11.3215C4.48515 11.2782 4.29849 11.2134 4.0983 11.1269C3.89813 11.0405 3.70336 10.9378 3.51399 10.819C3.32464 10.7001 3.18775 10.6012 3.10335 10.5224C3.02004 10.4446 2.91183 10.3344 2.77873 10.1917C2.64673 10.048 2.53202 9.90051 2.43464 9.74923C2.33725 9.59796 2.2442 9.42343 2.15548 9.2257L2.02075 8.93071L2.01264 8.9064L2.00452 8.88208L1.99965 8.86588L1.99641 8.84967L2.02075 8.85291L2.0451 8.85777L2.22364 8.88208C2.34268 8.89829 2.52933 8.90369 2.7836 8.89829C3.03789 8.8929 3.21372 8.88208 3.3111 8.86588C3.40849 8.84967 3.46801 8.83886 3.48964 8.83346L3.52211 8.82536L3.56268 8.81725L3.60326 8.80915L3.60651 8.80429L3.61137 8.80104L3.61626 8.7978L3.61949 8.79294L3.58703 8.78483L3.55457 8.77673L3.52211 8.76863L3.48964 8.76052L3.45718 8.75242C3.43555 8.74702 3.39768 8.73621 3.34357 8.72C3.28947 8.70379 3.14339 8.64436 2.90533 8.54171C2.66729 8.43906 2.47793 8.3391 2.33725 8.24185C2.19623 8.14432 2.06177 8.03766 1.93473 7.92255C1.80813 7.80585 1.6691 7.65564 1.5176 7.47195C1.36611 7.28826 1.23086 7.07485 1.11183 6.83172C0.992805 6.58859 0.903535 6.35628 0.844017 6.13476C0.784738 5.91454 0.745628 5.6894 0.727171 5.46211L0.697939 5.12173L0.71417 5.12498L0.730401 5.12984L0.746632 5.13794L0.762863 5.14605L0.779094 5.15415L0.795324 5.16226L1.0469 5.27571C1.21463 5.35136 1.42292 5.41619 1.67179 5.47021C1.92067 5.52424 2.06945 5.55396 2.11814 5.55936L2.19118 5.56747L2.33725 5.56747L2.33402 5.5626L2.32914 5.55936L2.32427 5.55612L2.32102 5.55126L2.31779 5.54639L2.31291 5.54315L2.30804 5.53991L2.30479 5.53505L2.28856 5.52694L2.27233 5.51884L2.2691 5.51398L2.26422 5.51074L2.25935 5.50749L2.2561 5.50263L2.23987 5.49453L2.22364 5.48642L2.22041 5.48156C2.21716 5.47939 2.17063 5.44482 2.08081 5.37783C1.99207 5.30975 1.89902 5.22169 1.80164 5.11363C1.70425 5.00557 1.60687 4.89211 1.50948 4.77325C1.41192 4.65412 1.32502 4.52667 1.24979 4.39236C1.17405 4.25729 1.09397 4.08547 1.00957 3.87693C0.926259 3.66946 0.862958 3.46037 0.819671 3.24966C0.776399 3.03895 0.752053 2.83095 0.746632 2.62564C0.741227 2.42033 0.746632 2.24474 0.762863 2.09887C0.779094 1.95299 0.811555 1.7882 0.860248 1.60451C0.90894 1.42082 0.979285 1.22632 1.07125 1.02101L1.20921 0.713047L1.21733 0.688734L1.22544 0.664422L1.23033 0.66118L1.23356 0.656318L1.2368 0.651455L1.24167 0.648213L1.24656 0.651455L1.24979 0.656318L1.25303 0.66118L1.2579 0.664422L1.26279 0.667663L1.26602 0.672526L1.26926 0.677388L1.27413 0.68063L1.28225 0.696839L1.29036 0.713047L1.29525 0.716289L1.29848 0.721151L1.5176 0.964277C1.66367 1.12636 1.83681 1.30736 2.03698 1.50726C2.23717 1.70716 2.34808 1.81089 2.36972 1.81846C2.39137 1.8271 2.41841 1.85195 2.45087 1.89302C2.48333 1.93301 2.59154 2.02863 2.77549 2.17991C2.95945 2.33118 3.2002 2.50678 3.49776 2.70668C3.79534 2.90658 4.12536 3.10379 4.48784 3.29829C4.85034 3.49279 5.23988 3.66837 5.65646 3.82506C6.07306 3.98175 6.36521 4.0844 6.53293 4.13302C6.70066 4.18165 6.98739 4.24377 7.39316 4.31942C7.79893 4.39506 8.10462 4.44369 8.3102 4.46529C8.5158 4.4869 8.65647 4.49933 8.7322 4.50257L8.84582 4.50581L8.84259 4.4815L8.8377 4.45719L8.80524 4.25458C8.78361 4.11952 8.77278 3.93042 8.77278 3.68729C8.77278 3.44416 8.79172 3.21995 8.82959 3.01464C8.86747 2.80933 8.92428 2.60133 9.00001 2.39062C9.07576 2.17991 9.14989 2.01079 9.22238 1.88329C9.29597 1.75687 9.39226 1.61261 9.51128 1.45053C9.63032 1.28845 9.78451 1.12096 9.97386 0.948069C10.1632 0.775174 10.3796 0.621194 10.6231 0.486129C10.8666 0.351065 11.0911 0.248401 11.2967 0.178169C11.5023 0.107938 11.6754 0.0620038 11.8161 0.040398C11.9567 0.0187922 12.0271 0.00636034 12.0271 0.00311866L12.0271 0.00311866Z"   fill="#8D8BA7" >
</path>
</svg>
