<svg xmlns="http://www.w3.org/2000/svg" xmlns:xlink="http://www.w3.org/1999/xlink" width="19.79998779296875" height="13.99658203125" viewBox="0 0 19.79998779296875 13.99658203125" fill="none">
<path d="M10.3387 13.9784L6.27647 13.9025C4.96122 13.8761 3.6427 13.9289 2.35324 13.6548C0.391676 13.2453 0.252711 11.2374 0.1073 9.55314C-0.093062 7.1853 -0.0154959 4.77448 0.362613 2.42641C0.576068 1.10889 1.4161 0.322722 2.71518 0.237171C7.10053 -0.0733036 11.515 -0.036509 15.8907 0.108339C16.3528 0.121617 16.8181 0.194193 17.2738 0.276804C19.5231 0.679722 19.5779 2.95512 19.7237 4.87058C19.8691 6.8058 19.8078 8.75096 19.5298 10.673C19.3068 12.2644 18.8802 13.5989 17.0799 13.7278C14.8241 13.8962 12.6201 14.0319 10.358 13.9887C10.3581 13.9784 10.3451 13.9784 10.3387 13.9784ZM7.95048 9.94947C9.65039 8.95206 11.3179 7.97127 13.008 6.98055C11.305 5.98314 9.64067 5.00235 7.95048 4.01163L7.95048 9.94947Z"   fill="#8D8BA7" >
</path>
</svg>
